<svg width="105" height="35" viewBox="0 0 105 35" fill="none" xmlns="http://www.w3.org/2000/svg">
<path d="M12.7506 5.39C17.9656 5.39 21.4656 8.225 21.4656 12.425C21.4656 16.625 17.8956 19.53 12.7506 19.53H8.48059C7.99059 19.53 7.57059 19.915 7.57059 20.405V23.38C7.57059 24.78 8.30559 26.18 9.56559 26.845C9.74059 26.915 9.91559 26.985 10.0906 27.055V28H1.20059V27.055C1.20059 27.055 1.20059 27.055 1.23559 27.055C2.74059 26.495 3.68559 24.955 3.68559 23.345V10.045C3.68559 8.435 2.74059 6.93 1.23559 6.37C1.20059 6.335 1.20059 6.335 1.20059 6.335V5.39H12.7506ZM11.0006 18.62C13.8006 18.62 17.4406 16.45 17.4406 12.425C17.4406 7.7 13.8006 6.335 11.0006 6.335H8.48059C7.99059 6.335 7.57059 6.72 7.57059 7.21V17.71C7.57059 18.2 7.99059 18.62 8.48059 18.62H11.0006ZM34.5769 11.305C34.9269 11.305 35.2419 11.34 35.5569 11.375V14.35H34.8919C31.5319 14.315 30.2369 15.68 29.3969 16.73C29.1519 17.045 29.0119 17.43 29.0119 17.815V23.1C29.0119 24.745 30.0619 26.215 31.6019 26.775V27.755H22.6419V26.775C22.6769 26.74 22.6769 26.74 22.7119 26.74C24.2519 26.145 25.2319 24.57 25.2319 22.925V16.87C25.0919 15.26 23.7269 14 22.1169 13.965V13.02L28.1019 11.34C28.3819 11.27 28.6269 11.48 28.6269 11.725V15.645C28.8019 15.295 29.6419 13.755 29.9569 13.265C30.9369 11.83 32.2669 11.305 34.5769 11.305ZM40.1354 21.42C39.7504 21.49 39.5054 21.875 39.6104 22.225C40.0654 23.835 41.6054 27.65 45.8054 27.23C47.4854 27.055 49.8304 25.48 50.9154 23.835C51.0204 23.66 51.3004 23.625 51.4404 23.835L52.6304 25.62C52.7354 25.76 52.7004 25.97 52.5604 26.075C50.5654 27.37 47.9754 28.21 45.6654 28.21C40.1004 28.21 35.9004 24.535 35.9004 19.67C35.9004 14.875 39.9604 11.13 45.1754 11.13C49.4454 11.13 52.7004 14.315 53.3654 18.06C53.5054 18.865 52.9104 19.6 52.1404 19.705L40.1354 21.42ZM39.4354 19.775C39.4354 20.16 39.7854 20.44 40.1704 20.405L49.0604 19.075C49.5154 19.005 49.8304 18.585 49.7604 18.13C49.4104 16.24 48.2554 11.795 44.6154 11.795C40.5554 11.795 39.4704 17.08 39.4354 19.775Z" fill="black"/>
<path d="M54 2H80H105V32H54V2Z" fill="black"/>
<path d="M66.6991 11.34H72.8241V12.285C71.4241 12.775 69.9891 15.295 69.5691 16.275L64.3191 27.755H63.0241L56.6191 14.14C56.3041 13.58 55.6041 12.74 54.3791 12.285V11.34H63.6891V12.285C63.6191 12.32 63.5841 12.32 63.5491 12.355C61.9741 12.95 61.3091 14.805 62.0091 16.345L64.9841 23.625L68.3441 16.275C69.0791 14.735 68.3441 12.88 66.7341 12.32L66.6991 12.285V11.34ZM78.1911 6.965C76.9311 6.965 75.9511 5.985 75.9511 4.725C75.9511 3.43 76.8961 2.45 78.1911 2.45C79.4861 2.45 80.4661 3.465 80.4661 4.725C80.4661 5.985 79.4861 6.965 78.1911 6.965ZM82.6361 26.74C82.6361 26.74 82.6711 26.775 82.7061 26.775V27.755H80.1161H76.3011H73.7461V26.775C73.7461 26.74 73.7811 26.74 73.7811 26.74C75.3211 26.18 76.3011 24.605 76.3011 22.96V17.15C76.3011 15.435 74.8661 14 73.1511 14V13.02L79.4511 11.34C79.8011 11.27 80.1161 11.515 80.1161 11.865V12.81V22.96C80.1161 24.605 81.0961 26.18 82.6361 26.74ZM104.795 26.74L104.865 26.775V27.755H102.275H98.4949V16.905C98.4949 14.525 96.5349 12.425 94.1199 12.565C91.7399 12.705 90.1299 14.805 90.1299 17.22V27.755H83.7599V26.775C85.2999 26.215 86.3149 24.745 86.3149 23.1L86.3499 17.15C86.3499 15.435 84.9149 14 83.1999 14V13.02L89.3249 11.34C89.5349 11.305 89.7099 11.445 89.7099 11.655L89.7449 14.035C89.8149 13.895 91.7749 11.13 95.8349 11.13C99.7199 11.13 102.275 14.175 102.275 17.08V23.17C102.31 24.78 103.29 26.215 104.795 26.74Z" fill="white"/>
</svg>
