<svg width="217" height="60" viewBox="0 0 217 60" fill="none" xmlns="http://www.w3.org/2000/svg">
<path d="M23.3271 6.7C30.7771 6.7 35.7772 10.75 35.7772 16.75C35.7772 22.75 30.6771 26.9 23.3271 26.9H17.2271C16.5271 26.9 15.9271 27.45 15.9271 28.15V32.4C15.9271 34.4 16.9771 36.4 18.7771 37.35C19.0271 37.45 19.2771 37.55 19.5271 37.65V39H6.82715V37.65C6.82715 37.65 6.82715 37.65 6.87715 37.65C9.02715 36.85 10.3771 34.65 10.3771 32.35V13.35C10.3771 11.05 9.02715 8.9 6.87715 8.1C6.82715 8.05 6.82715 8.05 6.82715 8.05V6.7H23.3271ZM20.8271 25.6C24.8271 25.6 30.0272 22.5 30.0272 16.75C30.0272 10 24.8271 8.05 20.8271 8.05H17.2271C16.5271 8.05 15.9271 8.6 15.9271 9.3V24.3C15.9271 25 16.5271 25.6 17.2271 25.6H20.8271ZM54.5076 15.15C55.0076 15.15 55.4576 15.2 55.9076 15.25V19.5H54.9576C50.1576 19.45 48.3076 21.4 47.1076 22.9C46.7576 23.35 46.5576 23.9 46.5576 24.45V32C46.5576 34.35 48.0576 36.45 50.2576 37.25V38.65H37.4576V37.25C37.5076 37.2 37.5076 37.2 37.5576 37.2C39.7576 36.35 41.1576 34.1 41.1576 31.75V23.1C40.9576 20.8 39.0076 19 36.7076 18.95V17.6L45.2576 15.2C45.6576 15.1 46.0076 15.4 46.0076 15.75V21.35C46.2576 20.85 47.4576 18.65 47.9076 17.95C49.3076 15.9 51.2076 15.15 54.5076 15.15ZM69.9482 14.9C77.5982 14.9 83.6482 20.25 83.6482 27.05C83.6482 33.9 77.5982 39.25 69.8982 39.25C62.2982 39.25 56.3482 33.9 56.3482 27.05C56.3482 20.25 62.2982 14.9 69.9482 14.9ZM69.9482 37.85C74.5482 37.85 78.0482 34.55 78.0482 27.1C78.0482 19.5 74.5482 16.7 69.9482 16.7C65.2482 16.7 61.8482 19.65 61.8482 27.1C61.8482 34.4 65.2482 37.85 69.9482 37.85ZM115.899 37.25C115.949 37.25 115.949 37.25 115.999 37.25V38.65H110.149C108.749 38.65 107.599 37.55 107.599 36.15V33.55C107.599 33.55 104.399 39.3 97.7986 39.3C90.6986 39.3 85.5986 34.15 85.5986 27.1C85.5986 20.05 90.6986 14.9 97.7986 14.9C103.249 14.9 106.999 19.4 106.999 19.4V11.05V10.8C106.999 8.35 104.999 6.3 102.499 6.3V4.9L111.599 2.5C111.999 2.4 112.449 2.75 112.449 3.2V12.05V31.95C112.449 34.25 113.749 36.45 115.899 37.25ZM99.1986 37.2C103.149 37.2 107.599 33.1 107.599 27.6C107.599 22.1 104.299 16.8 99.4486 16.8C94.3986 16.8 91.0986 20.9 91.0986 27.05C91.0986 33.55 94.4986 37.2 99.1986 37.2ZM146.021 37.25V38.65H140.521C138.421 38.65 136.671 36.95 136.671 34.85C136.521 35 133.721 38.95 127.921 38.95C122.371 38.95 118.721 34.65 118.721 30.5V21.75C118.721 19.5 117.271 17.45 115.121 16.65H115.071V15.25L124.121 15.2V30.7C124.121 34.15 126.921 37.1 130.371 36.9C133.771 36.7 136.071 33.7 136.071 30.3V15.2L145.171 15.25V16.65C142.971 17.45 141.521 19.55 141.521 21.9V32.75C141.521 35.2 143.521 37.25 146.021 37.25ZM166.357 31.95L169.457 34.1C169.557 34.2 169.607 34.4 169.507 34.55C167.207 37.55 163.507 39.3 159.207 39.3C151.557 39.3 145.607 33.9 145.607 27.05C145.607 20.25 151.557 14.9 159.207 14.9C163.607 14.9 167.207 16.55 169.507 19.6C169.607 19.75 169.607 19.95 169.457 20.05L166.357 22.25C166.207 22.35 166.007 22.3 165.957 22.15C164.857 19.7 162.807 16.1 159.307 16.1C153.507 16.1 151.107 22.45 151.107 27.05C151.107 31.65 153.457 38.1 159.307 38.1C162.907 38.1 165.107 34.2 165.957 32.05C166.007 31.9 166.207 31.85 166.357 31.95ZM187.642 33.15H188.992V38.4C188.992 38.5 188.942 38.6 188.842 38.6C187.442 38.85 186.042 39 184.692 39C178.592 39 175.242 36.55 174.642 31.8C174.592 31.45 174.542 20.5 174.542 17.4C174.542 16.95 174.192 16.6 173.742 16.6H170.242V15.2H174.542V12.5L178.492 8H179.942V14.4C179.942 14.85 180.292 15.2 180.742 15.2H187.042V16.6H180.742C180.292 16.6 179.942 17 179.942 17.4V23.5L179.992 33.4C179.992 34.25 180.792 37.2 183.042 37.2C184.492 37.2 186.542 35.45 187.642 33.15ZM202.679 25.5C207.879 27.45 209.729 29.2 209.729 32.25C209.729 37.45 204.529 39.3 200.079 39.3C196.279 39.3 192.829 38 190.479 35.75C190.279 35.55 190.279 35.25 190.429 35.05L192.179 33.1C192.379 32.9 192.729 32.9 192.929 33.15C194.529 35.35 197.279 38.25 200.179 38.25C202.929 38.25 204.679 35.85 204.679 33.95C204.679 30.8 203.029 30.05 201.229 29.3L198.279 28.2C193.329 26.35 191.479 24.5 191.479 21.45C191.479 17.45 195.029 14.85 200.529 14.85C203.679 14.85 206.379 15.7 208.529 17.4C208.729 17.55 208.779 17.9 208.579 18.15L206.929 19.95C206.729 20.25 206.329 20.2 206.129 19.9C204.879 17.8 202.379 15.85 200.479 15.85C197.329 15.85 196.529 18.2 196.529 19.45C196.529 22.1 198.479 23.9 200.079 24.5L202.679 25.5Z" fill="black"/>
<line x1="34" y1="58.5" x2="172" y2="58.5" stroke="black" stroke-width="3"/>
</svg>
